<svg xmlns="http://www.w3.org/2000/svg" width="900" height="600" viewBox="0 0 900 600">
  <defs>
    <linearGradient id="bg" x1="0" y1="0" x2="1" y2="1">
      <stop offset="0" stop-color="#fff0f6"/>
      <stop offset="1" stop-color="#e7fbff"/>
    </linearGradient>
    <filter id="shadow" x="-20%" y="-20%" width="140%" height="140%">
      <feDropShadow dx="0" dy="10" stdDeviation="12" flood-color="#2b2b2b" flood-opacity="0.18"/>
    </filter>
  </defs>
  <rect width="900" height="600" rx="36" fill="url(#bg)"/>
  <g filter="url(#shadow)">
    <rect x="80" y="80" width="740" height="440" rx="28" fill="#fff7f2" stroke="#2b2b2b" stroke-opacity="0.12"/>
    <text x="450" y="165" text-anchor="middle" font-family="Quicksand, Arial, sans-serif" font-size="34" fill="#2b2b2b">Cozy Dog Incoming&</text>
    <g transform="translate(450 330)">
      <circle r="120" fill="#b2f2bb"/>
      <path d="M-95 -20 C-150 -40 -155 40 -95 50 Z" fill="#9fe8aa"/>
      <path d="M95 -20 C150 -40 155 40 95 50 Z" fill="#9fe8aa"/>
      <circle cx="-35" cy="-10" r="12" fill="#2b2b2b"/>
      <circle cx="35" cy="-10" r="12" fill="#2b2b2b"/>
      <path d="M0 6 C-20 6 -20 28 0 28 C20 28 20 6 0 6 Z" fill="#2b2b2b"/>
      <path d="M-35 45 C-15 65 15 65 35 45" stroke="#2b2b2b" stroke-width="10" stroke-linecap="round" fill="none" opacity="0.85"/>
    </g>
    <text x="450" y="505" text-anchor="middle" font-family="Quicksand, Arial, sans-serif" font-size="18" fill="#6c6a73">If your breed image is missing, this dog volunteers as tribute.</text>
  </g>
</svg>
